<svg id="SvgjsSvg1063" xmlns="http://www.w3.org/2000/svg" version="1.1" xmlns:xlink="http://www.w3.org/1999/xlink" xmlns:svgjs="http://svgjs.com/svgjs" width="21" height="15" viewBox="0 0 21 15"><title>Rectangle 6</title><desc>Created with Avocode.</desc><defs id="SvgjsDefs1064"><clipPath id="SvgjsClipPath1068"><path id="SvgjsPath1067" d="M792 509C792 508.44772 792.44772 508 793 508L812 508C812.55228 508 813 508.44772 813 509L813 522C813 522.55228 812.55228 523 812 523L793 523C792.44772 523 792 522.55228 792 522Z " fill="#ffffff"></path></clipPath></defs><path id="SvgjsPath1065" d="M792 509C792 508.44772 792.44772 508 793 508L812 508C812.55228 508 813 508.44772 813 509L813 522C813 522.55228 812.55228 523 812 523L793 523C792.44772 523 792 522.55228 792 522Z " fill="#e1f8fe" fill-opacity="1" transform="matrix(1,0,0,1,-792,-508)"></path><path id="SvgjsPath1066" d="M792 509C792 508.44772 792.44772 508 793 508L812 508C812.55228 508 813 508.44772 813 509L813 522C813 522.55228 812.55228 523 812 523L793 523C792.44772 523 792 522.55228 792 522Z " fill-opacity="0" fill="#ffffff" stroke-dasharray="0" stroke-linejoin="miter" stroke-linecap="butt" stroke-opacity="1" stroke="#0a8dff" stroke-miterlimit="50" stroke-width="2" clip-path="url(&quot;#SvgjsClipPath1068&quot;)" transform="matrix(1,0,0,1,-792,-508)"></path><path id="SvgjsPath1069" d="M797 512L800 515L797 518 " fill-opacity="0" fill="#ffffff" stroke-dasharray="0" stroke-linejoin="miter" stroke-linecap="butt" stroke-opacity="1" stroke="#0a8dff" stroke-miterlimit="50" stroke-width="1" transform="matrix(1,0,0,1,-792,-508)"></path><path id="SvgjsPath1070" d="M800 518L807 518 " fill-opacity="0" fill="#ffffff" stroke-dasharray="0" stroke-linejoin="miter" stroke-linecap="butt" stroke-opacity="1" stroke="#0a8dff" stroke-miterlimit="50" stroke-width="1" transform="matrix(1,0,0,1,-792,-508)"></path></svg>