<svg xmlns="http://www.w3.org/2000/svg" viewBox="0 0 14 14">
  <path d="M10.7 10c1.7-.5 2.8-2 2.8-3.7 0-2-1.7-3.7-3.7-3.7-.6-1.2-2-2-3.3-2C4.5.5 3 2 3 4 1.4 4.3.4 5.6.4 7c0 1.8 1.4 3.2 3 3.2" fill="#e1f8fe"/>
  <path d="M10.7 10c1.7-.5 2.8-2 2.8-3.7 0-2-1.7-3.7-3.7-3.7-.6-1.2-2-2-3.3-2C4.5.5 3 2 3 4 1.4 4.3.4 5.6.4 7c0 1.8 1.4 3.2 3 3.2" fill="none" stroke-dasharray="0" stroke="#0a8dff" stroke-miterlimit="50"/>
  <path d="M7.5 6.5v7" fill="none" stroke-dasharray="0" stroke-linejoin="round" stroke-linecap="round" stroke="#0a8dff" stroke-miterlimit="50"/>
  <path d="M7.5 13.5l2.5-2M7 13.5l-2.5-2" fill="none" stroke-dasharray="0" stroke="#0a8dff" stroke-miterlimit="50"/>
</svg>
