<svg id="SvgjsSvg1016" xmlns="http://www.w3.org/2000/svg" version="1.1" xmlns:xlink="http://www.w3.org/1999/xlink" xmlns:svgjs="http://svgjs.com/svgjs" width="17" height="14" viewBox="0 0 17 14"><title>Rectangle 2 Copy 5</title><desc>Created with Avocode.</desc><defs id="SvgjsDefs1017"><clipPath id="SvgjsClipPath1021"><path id="SvgjsPath1020" d="M395 271C395 269.89543 395.89543 269 397 269H406C407.10457 269 408 269.89543 408 271V279C408 280.10457 407.10457 281 406 281H397C395.89543 281 395 280.10457 395 279Z " fill="#ffffff"></path></clipPath><clipPath id="SvgjsClipPath1025"><path id="SvgjsPath1024" d="M393 273C393 271.89543 393.89543 271 395 271H408C409.10457 271 410 271.89543 410 273V281C410 282.10457 409.10457 283 408 283H395C393.89543 283 393 282.10457 393 281Z " fill="#ffffff"></path></clipPath></defs><path id="SvgjsPath1018" d="M395 271C395 269.89543 395.89543 269 397 269H406C407.10457 269 408 269.89543 408 271V279C408 280.10457 407.10457 281 406 281H397C395.89543 281 395 280.10457 395 279Z " fill="#e1f8fe" fill-opacity="1" transform="matrix(1,0,0,1,-393,-269)"></path><path id="SvgjsPath1019" d="M395 271C395 269.89543 395.89543 269 397 269H406C407.10457 269 408 269.89543 408 271V279C408 280.10457 407.10457 281 406 281H397C395.89543 281 395 280.10457 395 279Z " fill-opacity="0" fill="#ffffff" stroke-dasharray="0" stroke-linejoin="miter" stroke-linecap="butt" stroke-opacity="1" stroke="#0a8dff" stroke-miterlimit="50" stroke-width="2" clip-path="url(&quot;#SvgjsClipPath1021&quot;)" transform="matrix(1,0,0,1,-393,-269)"></path><path id="SvgjsPath1022" d="M393 273C393 271.89543 393.89543 271 395 271H408C409.10457 271 410 271.89543 410 273V281C410 282.10457 409.10457 283 408 283H395C393.89543 283 393 282.10457 393 281Z " fill="#e1f8fe" fill-opacity="1" transform="matrix(1,0,0,1,-393,-269)"></path><path id="SvgjsPath1023" d="M393 273C393 271.89543 393.89543 271 395 271H408C409.10457 271 410 271.89543 410 273V281C410 282.10457 409.10457 283 408 283H395C393.89543 283 393 282.10457 393 281Z " fill-opacity="0" fill="#ffffff" stroke-dasharray="0" stroke-linejoin="miter" stroke-linecap="butt" stroke-opacity="1" stroke="#0a8dff" stroke-miterlimit="50" stroke-width="2" clip-path="url(&quot;#SvgjsClipPath1025&quot;)" transform="matrix(1,0,0,1,-393,-269)"></path></svg>