<svg id="SvgjsSvg1000" xmlns="http://www.w3.org/2000/svg" version="1.1" xmlns:xlink="http://www.w3.org/1999/xlink" xmlns:svgjs="http://svgjs.com/svgjs" width="17" height="14" viewBox="0 0 17 14"><title>Rectangle 2 Copy 3</title><desc>Created with Avocode.</desc><defs id="SvgjsDefs1001"><clipPath id="SvgjsClipPath1010"><path id="SvgjsPath1009" d="M365 220C365 218.89543 365.89543 218 367 218H376C377.10457 218 378 218.89543 378 220V228C378 229.10457 377.10457 230 376 230H367C365.89543 230 365 229.10457 365 228Z " fill="#ffffff"></path></clipPath><clipPath id="SvgjsClipPath1014"><path id="SvgjsPath1013" d="M363 222C363 220.89543 363.89543 220 365 220H378C379.10457 220 380 220.89543 380 222V230C380 231.10457 379.10457 232 378 232H365C363.89543 232 363 231.10457 363 230Z " fill="#ffffff"></path></clipPath></defs><path id="SvgjsPath1007" d="M365 220C365 218.89543 365.89543 218 367 218H376C377.10457 218 378 218.89543 378 220V228C378 229.10457 377.10457 230 376 230H367C365.89543 230 365 229.10457 365 228Z " fill="#e1f8fe" fill-opacity="1" transform="matrix(1,0,0,1,-363,-218)"></path><path id="SvgjsPath1008" d="M365 220C365 218.89543 365.89543 218 367 218H376C377.10457 218 378 218.89543 378 220V228C378 229.10457 377.10457 230 376 230H367C365.89543 230 365 229.10457 365 228Z " fill-opacity="0" fill="#ffffff" stroke-dasharray="0" stroke-linejoin="miter" stroke-linecap="butt" stroke-opacity="1" stroke="#0a8dff" stroke-miterlimit="50" stroke-width="2" clip-path="url(&quot;#SvgjsClipPath1010&quot;)" transform="matrix(1,0,0,1,-363,-218)"></path><path id="SvgjsPath1011" d="M363 222C363 220.89543 363.89543 220 365 220H378C379.10457 220 380 220.89543 380 222V230C380 231.10457 379.10457 232 378 232H365C363.89543 232 363 231.10457 363 230Z " fill="#e1f8fe" fill-opacity="1" transform="matrix(1,0,0,1,-363,-218)"></path><path id="SvgjsPath1012" d="M363 222C363 220.89543 363.89543 220 365 220H378C379.10457 220 380 220.89543 380 222V230C380 231.10457 379.10457 232 378 232H365C363.89543 232 363 231.10457 363 230Z " fill-opacity="0" fill="#ffffff" stroke-dasharray="0" stroke-linejoin="miter" stroke-linecap="butt" stroke-opacity="1" stroke="#0a8dff" stroke-miterlimit="50" stroke-width="2" clip-path="url(&quot;#SvgjsClipPath1014&quot;)" transform="matrix(1,0,0,1,-363,-218)"></path><path id="SvgjsPath1015" d="M368 226V225H375V226Z " fill="#0a8dff" fill-opacity="1" transform="matrix(1,0,0,1,-363,-218)"></path></svg>