<svg id="SvgjsSvg1019" xmlns="http://www.w3.org/2000/svg" version="1.1" xmlns:xlink="http://www.w3.org/1999/xlink" xmlns:svgjs="http://svgjs.com/svgjs" width="17" height="15" viewBox="0 0 17 15"><title>Rectangle 10 Copy 2</title><desc>Created with Avocode.</desc><defs id="SvgjsDefs1020"><clipPath id="SvgjsClipPath1024"><path id="SvgjsPath1023" d="M362.02 385.43C361.87 384.64 362.65 384 363.76 384H376.76C377.86 384 378.64 384.64 378.49 385.43L377.19 392.57C377.05 393.36 376.23 394 375.36 394H365.15000000000003C364.28000000000003 394 363.46000000000004 393.36 363.32000000000005 392.57Z " fill="#ffffff"></path></clipPath><clipPath id="SvgjsClipPath1028"><path id="SvgjsPath1027" d="M363 379H366L367 380H378V383H363Z " fill="#ffffff"></path></clipPath></defs><path id="SvgjsPath1021" d="M362.02 385.43C361.87 384.64 362.65 384 363.76 384H376.76C377.86 384 378.64 384.64 378.49 385.43L377.19 392.57C377.05 393.36 376.23 394 375.36 394H365.15000000000003C364.28000000000003 394 363.46000000000004 393.36 363.32000000000005 392.57Z " fill="#e1f8fe" fill-opacity="1" transform="matrix(1,0,0,1,-362,-379)"></path><path id="SvgjsPath1022" d="M362.02 385.43C361.87 384.64 362.65 384 363.76 384H376.76C377.86 384 378.64 384.64 378.49 385.43L377.19 392.57C377.05 393.36 376.23 394 375.36 394H365.15000000000003C364.28000000000003 394 363.46000000000004 393.36 363.32000000000005 392.57Z " fill-opacity="0" fill="#ffffff" stroke-dasharray="0" stroke-linejoin="miter" stroke-linecap="butt" stroke-opacity="1" stroke="#0a8dff" stroke-miterlimit="50" stroke-width="2" clip-path="url(&quot;#SvgjsClipPath1024&quot;)" transform="matrix(1,0,0,1,-362,-379)"></path><path id="SvgjsPath1025" d="M363 379H366L367 380H378V383H363Z " fill="#e1f8fe" fill-opacity="1" transform="matrix(1,0,0,1,-362,-379)"></path><path id="SvgjsPath1026" d="M363 379H366L367 380H378V383H363Z " fill-opacity="0" fill="#ffffff" stroke-dasharray="0" stroke-linejoin="miter" stroke-linecap="butt" stroke-opacity="1" stroke="#0a8dff" stroke-miterlimit="50" stroke-width="2" clip-path="url(&quot;#SvgjsClipPath1028&quot;)" transform="matrix(1,0,0,1,-362,-379)"></path></svg>