<svg id="SvgjsSvg1014" xmlns="http://www.w3.org/2000/svg" version="1.1" xmlns:xlink="http://www.w3.org/1999/xlink" xmlns:svgjs="http://svgjs.com/svgjs" width="17" height="9" viewBox="0 0 17 9"><title>Rectangle 6</title><desc>Created with Avocode.</desc><defs id="SvgjsDefs1015"><clipPath id="SvgjsClipPath1019"><path id="SvgjsPath1018" d="M364 366C364 364.89543 364.89543 364 366 364H379C380.10457 364 381 364.89543 381 366V371C381 372.10457 380.10457 373 379 373H366C364.89543 373 364 372.10457 364 371Z " fill="#ffffff"></path></clipPath></defs><path id="SvgjsPath1016" d="M364 366C364 364.89543 364.89543 364 366 364H379C380.10457 364 381 364.89543 381 366V371C381 372.10457 380.10457 373 379 373H366C364.89543 373 364 372.10457 364 371Z " fill="#e1f8fe" fill-opacity="1" transform="matrix(1,0,0,1,-364,-364)"></path><path id="SvgjsPath1017" d="M364 366C364 364.89543 364.89543 364 366 364H379C380.10457 364 381 364.89543 381 366V371C381 372.10457 380.10457 373 379 373H366C364.89543 373 364 372.10457 364 371Z " fill-opacity="0" fill="#ffffff" stroke-dasharray="0" stroke-linejoin="miter" stroke-linecap="butt" stroke-opacity="1" stroke="#198afa" stroke-miterlimit="50" stroke-width="2" clip-path="url(&quot;#SvgjsClipPath1019&quot;)" transform="matrix(1,0,0,1,-364,-364)"></path><path id="SvgjsPath1020" d="M373 369V368H378V369Z " fill="#198afa" fill-opacity="1" transform="matrix(1,0,0,1,-364,-364)"></path><path id="SvgjsPath1021" d="M367 369V368H369V369Z " fill="#198afa" fill-opacity="1" transform="matrix(1,0,0,1,-364,-364)"></path></svg>