<svg xmlns="http://www.w3.org/2000/svg" viewBox="0 0 16 16">
  <defs>
    <clipPath id="a">
      <path d="M554 81V65h16v16zm8-1c4 0 7-3 7-7s-3-7-7-7-7 3-7 7 3 7 7 7z" fill="#fff"/>
    </clipPath>
  </defs>
  <path d="M1 8c0-4 3-7 7-7s7 3 7 7-3 7-7 7-7-3-7-7z" fill="#e1f8fe"/>
  <path d="M555 73c0-4 3-7 7-7s7 3 7 7-3 7-7 7-7-3-7-7z" fill="none" stroke-dasharray="0" stroke="#0a8dff" stroke-miterlimit="50" stroke-width="2" clip-path="url(&quot;#a&quot;)" transform="translate(-554 -65)"/>
  <path d="M7 12V7h2v5zM7 5c0-.6.4-1 1-1s1 .4 1 1-.4 1-1 1-1-.4-1-1z" fill="#0a8dff"/>
</svg>
