<svg id="SvgjsSvg1059" xmlns="http://www.w3.org/2000/svg" version="1.1" xmlns:xlink="http://www.w3.org/1999/xlink" xmlns:svgjs="http://svgjs.com/svgjs" width="20.34999999999991" height="12" viewBox="0 0 20.34999999999991 12"><title>Shape</title><desc>Created with Avocode.</desc><defs id="SvgjsDefs1060"></defs><path id="SvgjsPath1061" d="M798.56 412C795.5 412 793 414.47 793 417.5C793 420.53 795.5 423 798.56 423C800.55 423 802.27 421.93 803.25 420.36L804.33 420.36C804.5300000000001 420.36 804.72 420.27000000000004 804.85 420.12L805.44 419.41L806.0400000000001 420.12C806.1700000000001 420.27 806.3600000000001 420.36 806.5600000000001 420.36L807.44 420.36C807.6400000000001 420.36 807.83 420.27000000000004 807.96 420.12L808.5600000000001 419.41L809.1500000000001 420.12C809.2800000000001 420.27 809.4700000000001 420.36 809.6700000000001 420.36L810.5600000000001 420.36C810.7600000000001 420.36 810.95 420.27000000000004 811.08 420.11L812.85 417.91C813.0500000000001 417.67 813.0500000000001 417.33000000000004 812.85 417.09000000000003L811.08 414.89000000000004C810.95 414.73 810.76 414.64000000000004 810.5600000000001 414.64000000000004L803.2500000000001 414.64000000000004C802.2700000000001 413.07000000000005 800.5500000000001 412.00000000000006 798.5600000000001 412.00000000000006Z " fill="#e1f8fe" fill-opacity="1" transform="matrix(1,0,0,1,-792.825,-411.5)"></path><path id="SvgjsPath1062" d="M798.56 412C795.5 412 793 414.47 793 417.5C793 420.53 795.5 423 798.56 423C800.55 423 802.27 421.93 803.25 420.36L804.33 420.36C804.5300000000001 420.36 804.72 420.27000000000004 804.85 420.12L805.44 419.41L806.0400000000001 420.12C806.1700000000001 420.27 806.3600000000001 420.36 806.5600000000001 420.36L807.44 420.36C807.6400000000001 420.36 807.83 420.27000000000004 807.96 420.12L808.5600000000001 419.41L809.1500000000001 420.12C809.2800000000001 420.27 809.4700000000001 420.36 809.6700000000001 420.36L810.5600000000001 420.36C810.7600000000001 420.36 810.95 420.27000000000004 811.08 420.11L812.85 417.91C813.0500000000001 417.67 813.0500000000001 417.33000000000004 812.85 417.09000000000003L811.08 414.89000000000004C810.95 414.73 810.76 414.64000000000004 810.5600000000001 414.64000000000004L803.2500000000001 414.64000000000004C802.2700000000001 413.07000000000005 800.5500000000001 412.00000000000006 798.5600000000001 412.00000000000006Z " fill-opacity="0" fill="#ffffff" stroke-dasharray="0" stroke-linejoin="miter" stroke-linecap="butt" stroke-opacity="1" stroke="#0a8dff" stroke-miterlimit="50" stroke-width="1" transform="matrix(1,0,0,1,-792.825,-411.5)"></path></svg>