<svg xmlns="http://www.w3.org/2000/svg" viewBox="0 0 16 17">
  <defs>
    <clipPath id="a">
      <path d="M368 517v-12h16v12zm1-3c0 1 1 2 2 2h10c1 0 2-1 2-2v-6c0-1-1-2-2-2h-10c-1 0-2 1-2 2z" fill="#fff"/>
    </clipPath>
    <clipPath id="b">
      <path d="M374 513v-4h4v4zm2-1c.6 0 1-.4 1-1s-.4-1-1-1-1 .4-1 1 .4 1 1 1z" fill="#fff"/>
    </clipPath>
    <clipPath id="c">
      <path d="M371 506v-6h10v6zm1-1h8v-3c0-.6-.4-1-1-1h-6c-.6 0-1 .4-1 1z" fill="#fff"/>
    </clipPath>
  </defs>
  <path d="M1 8c0-1 1-2 2-2h10c1 0 2 1 2 2v6c0 1-1 2-2 2H3c-1 0-2-1-2-2z" fill="#e1f8fe"/>
  <path d="M369 508c0-1 1-2 2-2h10c1 0 2 1 2 2v6c0 1-1 2-2 2h-10c-1 0-2-1-2-2z" fill="none" stroke-dasharray="0" stroke="#0a8dff" stroke-miterlimit="50" stroke-width="2" clip-path="url(&quot;#a&quot;)" transform="translate(-368 -500)"/>
  <path d="M7 11c0-.6.4-1 1-1s1 .4 1 1-.4 1-1 1-1-.4-1-1z" fill="#e1f8fe"/>
  <path d="M375 511c0-.6.4-1 1-1s1 .4 1 1-.4 1-1 1-1-.4-1-1z" fill="none" stroke-dasharray="0" stroke="#0a8dff" stroke-miterlimit="50" stroke-width="2" clip-path="url(&quot;#b&quot;)" transform="translate(-368 -500)"/>
  <path d="M372 502c0-.6.4-1 1-1h6c.6 0 1 .4 1 1v3h-8z" fill="none" stroke-dasharray="0" stroke="#0a8dff" stroke-miterlimit="50" stroke-width="2" clip-path="url(&quot;#c&quot;)" transform="translate(-368 -500)"/>
</svg>
