<svg xmlns="http://www.w3.org/2000/svg" viewBox="0 0 35 28.3" >
  <defs>
    <clipPath id="a">
      <path d="M365.5 471.5v-23h35v23zm33.5-10.2c0-4.4-3.5-8-8-8-1.4 0-3 .5-4 1.3-1-2.7-3.6-4.6-6.6-4.6-3.7 0-6.7 2.8-7 6.4-3.5 0-6.4 3-6.4 6.4 0 3 2.3 5.8 5.3 6.3H393c3.4-1 6-4 6-7.7z" fill="#fff"/>
    </clipPath>
  </defs>
  <path d="M27.5 20.5H6.8c-3-.4-5.3-3-5.3-6.2C1.5 10.8 4.5 8 8 8 8 4.2 11 1.4 15 1.4c3 0 5.4 2 6.4 4.6 1.2-.7 2.7-1 4.2-1 4.4 0 8 3.4 8 7.8 0 3.7-2.7 6.8-6 7.7z" fill="#e1f8fe"/>
  <path d="M393 469h-20.7c-3-.4-5.3-3-5.3-6.2 0-3.5 3-6.4 6.4-6.4.3-3.6 3.3-6.4 7-6.4 3 0 5.5 2 6.5 4.6 1-.8 2.6-1.2 4-1.2 4.5 0 8 3.5 8 8 0 3.6-2.6 6.7-6 7.6z" fill="none" stroke-dasharray="0" stroke="#0a8dff" stroke-miterlimit="50" stroke-width="3" clip-path="url(&quot;#a&quot;)" transform="translate(-365.5 -448.5)"/>
  <path d="M16.5 24.5v3M13.5 27.5h6M21.5 27.5h6M5.5 27.5h6" fill="none" stroke-dasharray="0" stroke="#198afa" stroke-miterlimit="50" stroke-width="1.5"/>
</svg>
