<svg xmlns="http://www.w3.org/2000/svg" viewBox="0 0 13 16">
  <g fill="none" fill-rule="evenodd">
    <path fill="#198AFA" d="M7.61697778,9.3213938 L11.7328267,14.2264715 C11.9103276,14.4380089 12.2257054,14.4656009 12.4372427,14.2881 C12.6487801,14.1105991 12.676372,13.7952213 12.4988711,13.5836839 L8.38302222,8.6786062 C8.20552132,8.46706886 7.89014353,8.43947688 7.6786062,8.61697778 C7.46706886,8.79447868 7.43947688,9.10985647 7.61697778,9.3213938 Z"/>
    <path fill="#E1F8FE" d="M6,12 C2.6862915,12 0,9.3137085 0,6 C0,2.6862915 2.6862915,0 6,0 C9.3137085,0 12,2.6862915 12,6 C12,9.3137085 9.3137085,12 6,12 Z"/>
    <path fill="#198AFA" d="M6,11 C8.76142375,11 11,8.76142375 11,6 C11,3.23857625 8.76142375,1 6,1 C3.23857625,1 1,3.23857625 1,6 C1,8.76142375 3.23857625,11 6,11 Z M6,12 C2.6862915,12 0,9.3137085 0,6 C0,2.6862915 2.6862915,0 6,0 C9.3137085,0 12,2.6862915 12,6 C12,9.3137085 9.3137085,12 6,12 Z"/>
  </g>
</svg>
