<svg id="SvgjsSvg1029" xmlns="http://www.w3.org/2000/svg" version="1.1" xmlns:xlink="http://www.w3.org/1999/xlink" xmlns:svgjs="http://svgjs.com/svgjs" width="31" height="31" viewBox="0 0 31 31"><title>Oval 4 Copy</title><desc>Created with Avocode.</desc><defs id="SvgjsDefs1030"><clipPath id="SvgjsClipPath1036"><path id="SvgjsPath1035" d="M1326 513C1326 512.44772 1326.44772 512 1327 512H1328C1329.10457 512 1330 512.89543 1330 514V517C1330 518.10457 1329.10457 519 1328 519H1327C1326.44772 519 1326 518.55228 1326 518Z " fill="#ffffff"></path></clipPath><clipPath id="SvgjsClipPath1040"><path id="SvgjsPath1039" d="M1316 513C1316 512.44772 1316.44772 512 1317 512H1318C1319.10457 512 1320 512.89543 1320 514V517C1320 518.10457 1319.10457 519 1318 519H1317C1316.44772 519 1316 518.55228 1316 518Z " fill="#ffffff"></path></clipPath></defs><path id="SvgjsPath1031" d="M1308 518C1308 509.71573 1314.71573 503 1323 503C1331.28427 503 1338 509.71573 1338 518C1338 526.28427 1331.28427 533 1323 533C1314.71573 533 1308 526.28427 1308 518Z " fill="#e1f8fe" fill-opacity="1" transform="matrix(1,0,0,1,-1307.5,-502.5)"></path><path id="SvgjsPath1032" d="M1308 518C1308 509.71573 1314.71573 503 1323 503C1331.28427 503 1338 509.71573 1338 518C1338 526.28427 1331.28427 533 1323 533C1314.71573 533 1308 526.28427 1308 518Z " fill-opacity="0" fill="#ffffff" stroke-dasharray="0" stroke-linejoin="miter" stroke-linecap="butt" stroke-opacity="1" stroke="#0a8dff" stroke-miterlimit="50" stroke-width="1" transform="matrix(1,0,0,1,-1307.5,-502.5)"></path><path id="SvgjsPath1033" d="M1326 513C1326 512.44772 1326.44772 512 1327 512H1328C1329.10457 512 1330 512.89543 1330 514V517C1330 518.10457 1329.10457 519 1328 519H1327C1326.44772 519 1326 518.55228 1326 518Z " fill="#e1f8fe" fill-opacity="1" transform="matrix(1,0,0,1,-1307.5,-502.5)"></path><path id="SvgjsPath1034" d="M1326 513C1326 512.44772 1326.44772 512 1327 512H1328C1329.10457 512 1330 512.89543 1330 514V517C1330 518.10457 1329.10457 519 1328 519H1327C1326.44772 519 1326 518.55228 1326 518Z " fill-opacity="0" fill="#ffffff" stroke-dasharray="0" stroke-linejoin="miter" stroke-linecap="butt" stroke-opacity="1" stroke="#0a8dff" stroke-miterlimit="50" stroke-width="2" clip-path="url(&quot;#SvgjsClipPath1036&quot;)" transform="matrix(1,0,0,1,-1307.5,-502.5)"></path><path id="SvgjsPath1037" d="M1316 513C1316 512.44772 1316.44772 512 1317 512H1318C1319.10457 512 1320 512.89543 1320 514V517C1320 518.10457 1319.10457 519 1318 519H1317C1316.44772 519 1316 518.55228 1316 518Z " fill="#e1f8fe" fill-opacity="1" transform="matrix(1,0,0,1,-1307.5,-502.5)"></path><path id="SvgjsPath1038" d="M1316 513C1316 512.44772 1316.44772 512 1317 512H1318C1319.10457 512 1320 512.89543 1320 514V517C1320 518.10457 1319.10457 519 1318 519H1317C1316.44772 519 1316 518.55228 1316 518Z " fill-opacity="0" fill="#ffffff" stroke-dasharray="0" stroke-linejoin="miter" stroke-linecap="butt" stroke-opacity="1" stroke="#0a8dff" stroke-miterlimit="50" stroke-width="2" clip-path="url(&quot;#SvgjsClipPath1040&quot;)" transform="matrix(1,0,0,1,-1307.5,-502.5)"></path><path id="SvgjsPath1041" d="M1317 522C1319 526 1325.5 528 1329 522 " fill-opacity="0" fill="#ffffff" stroke-dasharray="0" stroke-linejoin="miter" stroke-linecap="butt" stroke-opacity="1" stroke="#0a8dff" stroke-miterlimit="50" stroke-width="1" transform="matrix(1,0,0,1,-1307.5,-502.5)"></path></svg>