<svg id="SvgjsSvg1018" xmlns="http://www.w3.org/2000/svg" version="1.1" xmlns:xlink="http://www.w3.org/1999/xlink" xmlns:svgjs="http://svgjs.com/svgjs" width="18" height="10.5" viewBox="0 0 18 10.5"><title>Mask</title><desc>Created with Avocode.</desc><defs id="SvgjsDefs1019"></defs><path id="SvgjsPath1020" d="M383 264.5C383 259.81 379.19 256 374.5 256C369.81 256 366 259.81 366 264.5 " fill="#e1f8fe" fill-opacity="1" transform="matrix(1,0,0,1,-365.5,-255.5)"></path><path id="SvgjsPath1021" d="M383 264.5C383 259.81 379.19 256 374.5 256C369.81 256 366 259.81 366 264.5 " fill-opacity="0" fill="#ffffff" stroke-dasharray="0" stroke-linejoin="miter" stroke-linecap="butt" stroke-opacity="1" stroke="#0a8dff" stroke-miterlimit="50" stroke-width="1" transform="matrix(1,0,0,1,-365.5,-255.5)"></path><path id="SvgjsPath1022" d="M373 264.5C373 263.67157 373.67157 263 374.5 263C375.32843 263 376 263.67157 376 264.5C376 265.32843 375.32843 266 374.5 266C373.67157 266 373 265.32843 373 264.5Z " fill="#0a8dff" fill-opacity="1" transform="matrix(1,0,0,1,-365.5,-255.5)"></path><path id="SvgjsPath1023" d="M375 264.5L377.5 259 " fill-opacity="0" fill="#ffffff" stroke-dasharray="0" stroke-linejoin="round" stroke-linecap="round" stroke-opacity="1" stroke="#0a8dff" stroke-miterlimit="50" stroke-width="1" transform="matrix(1,0,0,1,-365.5,-255.5)"></path></svg>