<svg id="SvgjsSvg1013" xmlns="http://www.w3.org/2000/svg" version="1.1" xmlns:xlink="http://www.w3.org/1999/xlink" xmlns:svgjs="http://svgjs.com/svgjs" width="17" height="14" viewBox="0 0 17 14"><title>Rectangle 2 Copy 3</title><desc>Created with Avocode.</desc><defs id="SvgjsDefs1014"><clipPath id="SvgjsClipPath1018"><path id="SvgjsPath1017" d="M22 352C22 350.89543 22.89543 350 24 350L33 350C34.10457 350 35 350.89543 35 352L35 360C35 361.10457 34.10457 362 33 362L24 362C22.89543 362 22 361.10457 22 360Z " fill="#ffffff"></path></clipPath><clipPath id="SvgjsClipPath1022"><path id="SvgjsPath1021" d="M20 354C20 352.89543 20.89543 352 22 352L35 352C36.10457 352 37 352.89543 37 354L37 362C37 363.10457 36.10457 364 35 364L22 364C20.89543 364 20 363.10457 20 362Z " fill="#ffffff"></path></clipPath></defs><path id="SvgjsPath1015" d="M22 352C22 350.89543 22.89543 350 24 350L33 350C34.10457 350 35 350.89543 35 352L35 360C35 361.10457 34.10457 362 33 362L24 362C22.89543 362 22 361.10457 22 360Z " fill="#e1f8fe" fill-opacity="1" transform="matrix(1,0,0,1,-20,-350)"></path><path id="SvgjsPath1016" d="M22 352C22 350.89543 22.89543 350 24 350L33 350C34.10457 350 35 350.89543 35 352L35 360C35 361.10457 34.10457 362 33 362L24 362C22.89543 362 22 361.10457 22 360Z " fill-opacity="0" fill="#ffffff" stroke-dasharray="0" stroke-linejoin="miter" stroke-linecap="butt" stroke-opacity="1" stroke="#0a8dff" stroke-miterlimit="50" stroke-width="2" clip-path="url(&quot;#SvgjsClipPath1018&quot;)" transform="matrix(1,0,0,1,-20,-350)"></path><path id="SvgjsPath1019" d="M20 354C20 352.89543 20.89543 352 22 352L35 352C36.10457 352 37 352.89543 37 354L37 362C37 363.10457 36.10457 364 35 364L22 364C20.89543 364 20 363.10457 20 362Z " fill="#e1f8fe" fill-opacity="1" transform="matrix(1,0,0,1,-20,-350)"></path><path id="SvgjsPath1020" d="M20 354C20 352.89543 20.89543 352 22 352L35 352C36.10457 352 37 352.89543 37 354L37 362C37 363.10457 36.10457 364 35 364L22 364C20.89543 364 20 363.10457 20 362Z " fill-opacity="0" fill="#ffffff" stroke-dasharray="0" stroke-linejoin="miter" stroke-linecap="butt" stroke-opacity="1" stroke="#0a8dff" stroke-miterlimit="50" stroke-width="2" clip-path="url(&quot;#SvgjsClipPath1022&quot;)" transform="matrix(1,0,0,1,-20,-350)"></path></svg>