<svg id="SvgjsSvg1000" xmlns="http://www.w3.org/2000/svg" version="1.1" xmlns:xlink="http://www.w3.org/1999/xlink" xmlns:svgjs="http://svgjs.com/svgjs" width="18" height="18" viewBox="0 0 18 18"><title>Shape</title><desc>Created with Avocode.</desc><defs id="SvgjsDefs1001"><clipPath id="SvgjsClipPath1010"><path id="SvgjsPath1009" d="M30 493C25.03 493 21 497.03 21 502C21 506.97 25.03 511 30 511C34.97 511 39 506.97 39 502C39 497.03 34.97 493 30 493Z " fill="#ffffff"></path></clipPath></defs><path id="SvgjsPath1007" d="M30 493C25.03 493 21 497.03 21 502C21 506.97 25.03 511 30 511C34.97 511 39 506.97 39 502C39 497.03 34.97 493 30 493Z " fill="#e1f8fe" fill-opacity="1" transform="matrix(1,0,0,1,-21,-493)"></path><path id="SvgjsPath1008" d="M30 493C25.03 493 21 497.03 21 502C21 506.97 25.03 511 30 511C34.97 511 39 506.97 39 502C39 497.03 34.97 493 30 493Z " fill-opacity="0" fill="#ffffff" stroke-dasharray="0" stroke-linejoin="miter" stroke-linecap="butt" stroke-opacity="1" stroke="#0a8dff" stroke-miterlimit="50" stroke-width="2" clip-path="url(&quot;#SvgjsClipPath1010&quot;)" transform="matrix(1,0,0,1,-21,-493)"></path><path id="SvgjsPath1011" d="M31.88 502.15L31.419999999999998 502.40999999999997L31.419999999999998 502.43999999999994L31.419999999999998 505.42999999999995C31.419999999999998 506.2099999999999 30.81 506.99999999999994 30.009999999999998 506.99999999999994C29.229999999999997 506.99999999999994 28.56 506.22999999999996 28.56 505.42999999999995L28.56 502.4599999999999L28.56 502.4199999999999L28.139999999999997 502.1499999999999C27.439999999999998 501.5899999999999 26.999999999999996 500.7399999999999 26.999999999999996 499.7899999999999C26.999999999999996 498.5299999999999 27.899999999999995 497.4399999999999 28.999999999999996 496.9999999999999C28.999999999999996 497.4299999999999 28.999999999999996 499.6399999999999 28.999999999999996 499.9999999999999C29.019999999999996 500.0099999999999 29.769999999999996 500.33999999999986 30.009999999999998 500.4899999999999C30.279999999999998 500.32999999999987 30.749999999999996 500.1499999999999 30.999999999999996 499.9999999999999C30.999999999999996 499.6399999999999 30.999999999999996 497.4299999999999 30.999999999999996 496.9999999999999C32.11 497.4399999999999 33.019999999999996 498.52999999999986 33.019999999999996 499.7899999999999C33.019999999999996 500.7399999999999 32.58 501.5899999999999 31.879999999999995 502.1499999999999Z " fill="#ffffff" fill-opacity="1" transform="matrix(1,0,0,1,-21,-493)"></path><path id="SvgjsPath1012" d="M31.88 502.15L31.419999999999998 502.40999999999997L31.419999999999998 502.43999999999994L31.419999999999998 505.42999999999995C31.419999999999998 506.2099999999999 30.81 506.99999999999994 30.009999999999998 506.99999999999994C29.229999999999997 506.99999999999994 28.56 506.22999999999996 28.56 505.42999999999995L28.56 502.4599999999999L28.56 502.4199999999999L28.139999999999997 502.1499999999999C27.439999999999998 501.5899999999999 26.999999999999996 500.7399999999999 26.999999999999996 499.7899999999999C26.999999999999996 498.5299999999999 27.899999999999995 497.4399999999999 28.999999999999996 496.9999999999999C28.999999999999996 497.4299999999999 28.999999999999996 499.6399999999999 28.999999999999996 499.9999999999999C29.019999999999996 500.0099999999999 29.769999999999996 500.33999999999986 30.009999999999998 500.4899999999999C30.279999999999998 500.32999999999987 30.749999999999996 500.1499999999999 30.999999999999996 499.9999999999999C30.999999999999996 499.6399999999999 30.999999999999996 497.4299999999999 30.999999999999996 496.9999999999999C32.11 497.4399999999999 33.019999999999996 498.52999999999986 33.019999999999996 499.7899999999999C33.019999999999996 500.7399999999999 32.58 501.5899999999999 31.879999999999995 502.1499999999999Z " fill-opacity="0" fill="#ffffff" stroke-dasharray="0" stroke-linejoin="miter" stroke-linecap="butt" stroke-opacity="1" stroke="#0a8dff" stroke-miterlimit="50" stroke-width="1" transform="matrix(1,0,0,1,-21,-493)"></path></svg>