<svg id="SvgjsSvg1009" xmlns="http://www.w3.org/2000/svg" version="1.1" xmlns:xlink="http://www.w3.org/1999/xlink" xmlns:svgjs="http://svgjs.com/svgjs" width="23.575904927144165" height="23" viewBox="0 0 23.575904927144165 23"><title>Triangle</title><desc>Created with Avocode.</desc><defs id="SvgjsDefs1010"></defs><path id="SvgjsPath1011" d="M363.65 310L366.40999999999997 314.79L360.99999999999994 317.92Z " fill="#e1f8fe" fill-opacity="1" transform="matrix(1,0,0,1,-360.2120475364279,-307.5)"></path><path id="SvgjsPath1012" d="M363.65 310L366.40999999999997 314.79L360.99999999999994 317.92Z " fill-opacity="0" fill="#ffffff" stroke-dasharray="0" stroke-linejoin="miter" stroke-linecap="butt" stroke-opacity="1" stroke="#0a8dff" stroke-miterlimit="50" stroke-width="1" transform="matrix(1,0,0,1,-360.2120475364279,-307.5)"></path><path id="SvgjsPath1013" d="M379.65 310L382.40999999999997 314.79L376.99999999999994 317.92Z " fill="#e1f8fe" fill-opacity="1" transform="matrix(1,0,0,1,-360.2120475364279,-307.5)"></path><path id="SvgjsPath1014" d="M379.65 310L382.40999999999997 314.79L376.99999999999994 317.92Z " fill-opacity="0" fill="#ffffff" stroke-dasharray="0" stroke-linejoin="miter" stroke-linecap="butt" stroke-opacity="1" stroke="#0a8dff" stroke-miterlimit="50" stroke-width="1" transform="matrix(1,0,0,1,-360.2120475364279,-307.5)"></path><path id="SvgjsPath1015" d="M363.65 319L366.40999999999997 323.79L360.99999999999994 326.92Z " fill="#e1f8fe" fill-opacity="1" transform="matrix(1,0,0,1,-360.2120475364279,-307.5)"></path><path id="SvgjsPath1016" d="M363.65 319L366.40999999999997 323.79L360.99999999999994 326.92Z " fill-opacity="0" fill="#ffffff" stroke-dasharray="0" stroke-linejoin="miter" stroke-linecap="butt" stroke-opacity="1" stroke="#0a8dff" stroke-miterlimit="50" stroke-width="1" transform="matrix(1,0,0,1,-360.2120475364279,-307.5)"></path><path id="SvgjsPath1017" d="M379.65 319L382.40999999999997 323.79L376.99999999999994 326.92Z " fill="#e1f8fe" fill-opacity="1" transform="matrix(1,0,0,1,-360.2120475364279,-307.5)"></path><path id="SvgjsPath1018" d="M379.65 319L382.40999999999997 323.79L376.99999999999994 326.92Z " fill-opacity="0" fill="#ffffff" stroke-dasharray="0" stroke-linejoin="miter" stroke-linecap="butt" stroke-opacity="1" stroke="#0a8dff" stroke-miterlimit="50" stroke-width="1" transform="matrix(1,0,0,1,-360.2120475364279,-307.5)"></path><path id="SvgjsPath1019" d="M366 310C366 308.89543 366.89543 308 368 308H376C377.10457 308 378 308.89543 378 310V328C378 329.10457 377.10457 330 376 330H368C366.89543 330 366 329.10457 366 328Z " fill="#e1f8fe" fill-opacity="1" transform="matrix(1,0,0,1,-360.2120475364279,-307.5)"></path><path id="SvgjsPath1020" d="M366 310C366 308.89543 366.89543 308 368 308H376C377.10457 308 378 308.89543 378 310V328C378 329.10457 377.10457 330 376 330H368C366.89543 330 366 329.10457 366 328Z " fill-opacity="0" fill="#ffffff" stroke-dasharray="0" stroke-linejoin="miter" stroke-linecap="butt" stroke-opacity="1" stroke="#0a8dff" stroke-miterlimit="50" stroke-width="1" transform="matrix(1,0,0,1,-360.2120475364279,-307.5)"></path><path id="SvgjsPath1021" d="M369 315C369 313.34315 370.34315 312 372 312C373.65685 312 375 313.34315 375 315C375 316.65685 373.65685 318 372 318C370.34315 318 369 316.65685 369 315Z " fill-opacity="0" fill="#ffffff" stroke-dasharray="0" stroke-linejoin="miter" stroke-linecap="butt" stroke-opacity="1" stroke="#0a8dff" stroke-miterlimit="50" stroke-width="1" transform="matrix(1,0,0,1,-360.2120475364279,-307.5)"></path><path id="SvgjsPath1022" d="M369 323C369 321.34315 370.34315 320 372 320C373.65685 320 375 321.34315 375 323C375 324.65685 373.65685 326 372 326C370.34315 326 369 324.65685 369 323Z " fill-opacity="0" fill="#ffffff" stroke-dasharray="0" stroke-linejoin="miter" stroke-linecap="butt" stroke-opacity="1" stroke="#0a8dff" stroke-miterlimit="50" stroke-width="1" transform="matrix(1,0,0,1,-360.2120475364279,-307.5)"></path></svg>