<svg id="SvgjsSvg1024" xmlns="http://www.w3.org/2000/svg" version="1.1" xmlns:xlink="http://www.w3.org/1999/xlink" xmlns:svgjs="http://svgjs.com/svgjs" width="13" height="15" viewBox="0 0 13 15"><title>Oval 9 Copy 4</title><desc>Created with Avocode.</desc><defs id="SvgjsDefs1025"></defs><path id="SvgjsPath1026" d="M810 267C810 263.69 807.31 261 804 261C800.69 261 798 263.69 798 267 " fill="#e1f8fe" fill-opacity="1" transform="matrix(1,0,0,1,-797.5,-252.5)"></path><path id="SvgjsPath1027" d="M810 267C810 263.69 807.31 261 804 261C800.69 261 798 263.69 798 267 " fill-opacity="0" fill="#ffffff" stroke-dasharray="0" stroke-linejoin="miter" stroke-linecap="butt" stroke-opacity="1" stroke="#0a8dff" stroke-miterlimit="50" stroke-width="1" transform="matrix(1,0,0,1,-797.5,-252.5)"></path><path id="SvgjsPath1028" d="M801 256C801 254.34315 802.34315 253 804 253C805.65685 253 807 254.34315 807 256C807 257.65685 805.65685 259 804 259C802.34315 259 801 257.65685 801 256Z " fill="#e1f8fe" fill-opacity="1" transform="matrix(1,0,0,1,-797.5,-252.5)"></path><path id="SvgjsPath1029" d="M801 256C801 254.34315 802.34315 253 804 253C805.65685 253 807 254.34315 807 256C807 257.65685 805.65685 259 804 259C802.34315 259 801 257.65685 801 256Z " fill-opacity="0" fill="#ffffff" stroke-dasharray="0" stroke-linejoin="miter" stroke-linecap="butt" stroke-opacity="1" stroke="#0a8dff" stroke-miterlimit="50" stroke-width="1" transform="matrix(1,0,0,1,-797.5,-252.5)"></path></svg>