<svg xmlns="http://www.w3.org/2000/svg" viewBox="0 0 58 58" width="17" height="17">
<circle	cx="29" cy="29" r="28" fill="#e1f8fe" />
  <path d="M50.7 48.2c4.5-5 7.3-11.8 7.3-19.2 0-7.7-3-14.6-8-19.8-5-5.4-12-9-20-9.2h-.6H28C20 .3 13 3.8 8 9.2c-5 5.2-8 12-8 19.8 0 7.4 2.8 14 7.3 19.2C12.6 54 20 57.8 28 58h2c8.2-.3 15.5-4 20.6-9.7zM2 30h12c0 4.2 1 8.4 2.4 12.2-2.8 1-5.5 2.4-8 4C4.5 42 2.3 36.3 2 30zm7-19c2.4 1.6 5 3 7.8 4C15 19 14 23.3 14 28H2c.3-6.5 2.8-12.4 7-17zm47 17H44c0-4.6-1-9-2.8-13 2.8-1 5.4-2.4 8-4 4 4.6 6.5 10.5 6.8 17zM28 15c-3 0-5.7-.6-8.5-1.3 2-4.2 5-8 8.5-11V15zm0 2v11H16c.2-4.3 1-8.6 2.7-12.5 3 1 6 1.4 9.3 1.5zm2 0c3.2 0 6.3-.6 9.3-1.5C41 19.5 42 23.7 42 28H30V17zm0-2V2.6c3.6 3.2 6.4 7 8.5 11-2.8.8-5.6 1.3-8.5 1.4zm10.4-2c-2-4-4.6-7.6-8-10.8 6 .8 11.2 3.5 15.3 7.4-2.3 1.4-4.7 2.6-7.3 3.5zm-22.8 0c-2.6-.8-5-2-7.3-3.4 4-4 9.3-6.6 15.2-7.4-3.3 3.2-6 6.8-8 11zM16 30h12v10c-3.3 0-6.5.6-9.7 1.6C17 38 16 34 16 30zm12 12v13.4c-3.8-3.4-6.8-7.5-9-12 3-.8 6-1.3 9-1.4zm2 13.4V42c3 0 6 .6 9 1.4-2.2 4.5-5.2 8.6-9 12zM30 40V30h12c0 4-1 8-2.3 11.6-3.2-1-6.4-1.5-9.7-1.6zm14-10h12c-.3 6.2-2.6 12-6.3 16.3-2.6-1.7-5.3-3-8-4 1.3-4 2.2-8 2.3-12.3zM9.7 47.8c2.4-1.5 5-2.8 7.5-3.7 2 4.4 4.7 8.4 8.3 11.8-6.2-.8-11.7-3.7-15.8-8zm22.8 8c3.6-3.4 6.3-7.4 8.3-11.7 2.6 1 5 2.3 7.5 3.8-4 4.3-9.6 7.2-15.8 8z" fill="#0A8DFF"/>

</svg>
